<svg xmlns="http://www.w3.org/2000/svg" width="232" height="48" fill="none" viewBox="0 0 232 48"><path fill="#000" d="M9.9913 15.3636V35.6903C9.9913 37.0071 9.41602 37.6335 7.70295 37.6335C7.46005 37.6335 7.24272 37.6207 6.9359 37.5824V42.3253C7.39613 42.3509 7.75408 42.3636 8.20153 42.3636C13.0978 42.3636 16.2427 40.6761 16.2427 35.8182V15.3636H9.9913ZM13.1106 13.0753C14.8876 13.0753 16.3194 11.733 16.3194 10.0838C16.3194 8.43466 14.8876 7.10511 13.1106 7.10511C11.3464 7.10511 9.90181 8.43466 9.90181 10.0838C9.90181 11.733 11.3464 13.0753 13.1106 13.0753ZM25.7573 35.3324C28.4931 35.3324 30.3851 34.2713 31.459 32.2642H31.6124V35H37.4931V21.6534C37.4931 17.4986 33.7985 15.108 28.7999 15.108C23.5201 15.108 20.5286 17.767 20.03 21.3466L25.7956 21.5511C26.0641 20.2983 27.0996 19.5312 28.7488 19.5312C30.2828 19.5312 31.2544 20.2727 31.2544 21.5895V21.6534C31.2544 22.8551 29.9505 23.1108 26.601 23.4048C22.6252 23.7372 19.3013 25.2074 19.3013 29.554C19.3013 33.4403 21.9988 35.3324 25.7573 35.3324ZM27.6877 31.2415C26.2431 31.2415 25.2203 30.5511 25.2203 29.2472C25.2203 27.9815 26.2175 27.2145 27.9945 26.946C29.1578 26.7798 30.5897 26.5241 31.2928 26.1534V28.0199C31.2928 29.9375 29.682 31.2415 27.6877 31.2415ZM47.5669 23.8011C47.5797 21.5639 48.8837 20.2344 50.8652 20.2344C52.8468 20.2344 54.0229 21.5384 54.0101 23.7116V35H60.2615V22.4844C60.2743 18.0611 57.5769 15.108 53.4476 15.108C50.5456 15.108 48.3468 16.5781 47.4775 18.9688H47.2601V15.3636H41.3155V35H47.5669V23.8011ZM69.6674 35.3324C72.4032 35.3324 74.2953 34.2713 75.3691 32.2642H75.5226V35H81.4032V21.6534C81.4032 17.4986 77.7086 15.108 72.7101 15.108C67.4302 15.108 64.4387 17.767 63.9402 21.3466L69.7058 21.5511C69.9743 20.2983 71.0098 19.5312 72.6589 19.5312C74.193 19.5312 75.1646 20.2727 75.1646 21.5895V21.6534C75.1646 22.8551 73.8606 23.1108 70.5112 23.4048C66.5353 23.7372 63.2115 25.2074 63.2115 29.554C63.2115 33.4403 65.9089 35.3324 69.6674 35.3324ZM71.5978 31.2415C70.1532 31.2415 69.1305 30.5511 69.1305 29.2472C69.1305 27.9815 70.1277 27.2145 71.9047 26.946C73.068 26.7798 74.4998 26.5241 75.2029 26.1534V28.0199C75.2029 29.9375 73.5922 31.2415 71.5978 31.2415ZM85.2257 35H91.4771V24.3381C91.4771 21.9986 93.139 20.4261 95.3762 20.4261C96.1177 20.4261 97.2299 20.554 97.8308 20.7585V15.3253C97.3066 15.1847 96.6547 15.0952 96.0794 15.0952C93.9316 15.0952 92.2186 16.348 91.5027 18.9432H91.2981V15.3636H85.2257V35ZM108.525 35.3707C114.699 35.3707 118.445 31.2926 118.445 25.2457C118.445 19.1861 114.699 15.108 108.525 15.108C102.35 15.108 98.6042 19.1861 98.6042 25.2457C98.6042 31.2926 102.35 35.3707 108.525 35.3707ZM108.563 30.6534C106.249 30.6534 104.971 28.4545 104.971 25.2074C104.971 21.9474 106.249 19.7358 108.563 19.7358C110.8 19.7358 112.079 21.9474 112.079 25.2074C112.079 28.4545 110.8 30.6534 108.563 30.6534ZM138.791 21.3594C138.459 17.473 135.275 15.108 129.957 15.108C124.639 15.108 121.251 17.4219 121.277 21.3594C121.251 24.3764 123.182 26.3196 127.106 27.0483L130.532 27.7003C132.156 28.0199 132.898 28.5312 132.923 29.4006C132.898 30.3849 131.798 31.0369 130.2 31.0369C128.423 31.0369 127.221 30.2699 126.953 28.8381L120.778 28.9915C121.226 32.8778 124.562 35.3707 130.175 35.3707C135.429 35.3707 139.251 32.75 139.277 28.7102C139.251 25.8466 137.359 24.1463 133.447 23.392L129.663 22.6761C128.001 22.3438 127.464 21.7557 127.477 21.0014C127.464 20.0043 128.628 19.3906 130.072 19.3906C131.721 19.3906 132.872 20.2727 133.051 21.5128L138.791 21.3594ZM142.355 35H148.606V23.3793C148.606 21.4361 149.744 20.196 151.38 20.196C153.004 20.196 154.078 21.3338 154.078 23.1491V35H160.086V23.277C160.086 21.3977 161.122 20.196 162.847 20.196C164.433 20.196 165.558 21.2571 165.558 23.2131V35H171.809V21.7812C171.809 17.6264 169.252 15.108 165.545 15.108C162.643 15.108 160.355 16.6293 159.626 18.9688H159.421C158.897 16.6165 156.788 15.108 154.065 15.108C151.38 15.108 149.335 16.5781 148.517 18.9688H148.299V15.3636H142.355V35ZM184.849 35.3707C191.024 35.3707 194.769 31.2926 194.769 25.2457C194.769 19.1861 191.024 15.108 184.849 15.108C178.674 15.108 174.928 19.1861 174.928 25.2457C174.928 31.2926 178.674 35.3707 184.849 35.3707ZM184.887 30.6534C182.573 30.6534 181.295 28.4545 181.295 25.2074C181.295 21.9474 182.573 19.7358 184.887 19.7358C187.124 19.7358 188.403 21.9474 188.403 25.2074C188.403 28.4545 187.124 30.6534 184.887 30.6534Z"/><rect width="26" height="6" x="198" y="29" fill="#4209ED"/></svg>