<svg width="89.776" height="22.444" viewBox="0 0 89.776 22.444" xmlns="http://www.w3.org/2000/svg"><g id="svgGroup" stroke-linecap="round" fill-rule="evenodd" font-size="9pt" stroke="#000" stroke-width="0.25mm" fill="none" style="stroke:#000;stroke-width:0.25mm;fill:none"><path d="M 0 20.243 L 1.488 17.763 Q 2.604 18.693 3.999 19.282 A 7.238 7.238 0 0 0 5.664 19.75 A 9.957 9.957 0 0 0 7.254 19.871 A 8.674 8.674 0 0 0 8.664 19.764 Q 9.415 19.64 10.023 19.373 A 4.247 4.247 0 0 0 10.788 18.941 A 3.187 3.187 0 0 0 11.655 18.041 Q 12.063 17.388 12.088 16.543 A 3.757 3.757 0 0 0 12.09 16.43 A 4.012 4.012 0 0 0 12.01 15.616 A 3.47 3.47 0 0 0 11.904 15.221 A 2.236 2.236 0 0 0 11.606 14.641 Q 11.452 14.423 11.238 14.212 A 3.888 3.888 0 0 0 11.175 14.152 Q 10.781 13.78 10.158 13.408 A 10.43 10.43 0 0 0 9.656 13.129 A 15.878 15.878 0 0 0 8.881 12.751 Q 8.123 12.405 7.13 12.028 A 32.323 32.323 0 0 1 5.946 11.542 Q 5.02 11.139 4.294 10.742 Q 3.131 10.106 2.418 9.347 A 4.741 4.741 0 0 1 1.608 8.188 A 4.32 4.32 0 0 1 1.395 7.673 A 5.685 5.685 0 0 1 1.149 6.594 A 7.709 7.709 0 0 1 1.085 5.58 Q 1.085 4.433 1.566 3.41 A 4.943 4.943 0 0 1 2.818 1.772 A 5.793 5.793 0 0 1 2.991 1.628 Q 3.937 0.868 5.317 0.434 A 9.104 9.104 0 0 1 6.892 0.095 A 12.355 12.355 0 0 1 8.463 0 Q 10.385 0 11.904 0.388 Q 13.423 0.775 14.911 1.488 L 13.826 3.999 A 9.764 9.764 0 0 0 12.547 3.373 A 12.923 12.923 0 0 0 11.362 2.961 Q 9.951 2.542 8.401 2.542 A 8.59 8.59 0 0 0 7.152 2.627 Q 5.968 2.801 5.177 3.333 Q 3.999 4.123 3.999 5.425 A 3.842 3.842 0 0 0 4.039 5.993 A 2.85 2.85 0 0 0 4.17 6.526 A 1.822 1.822 0 0 0 4.404 6.969 Q 4.58 7.217 4.852 7.456 Q 5.363 7.905 6.278 8.37 A 14.548 14.548 0 0 0 6.978 8.701 Q 7.714 9.027 8.711 9.393 Q 10.509 10.075 11.749 10.788 A 10.52 10.52 0 0 1 12.707 11.406 Q 13.173 11.746 13.537 12.105 A 5.899 5.899 0 0 1 13.733 12.307 A 5.33 5.33 0 0 1 14.484 13.335 A 4.568 4.568 0 0 1 14.803 14.043 A 5.804 5.804 0 0 1 15.096 15.41 A 7.096 7.096 0 0 1 15.128 16.089 A 6.679 6.679 0 0 1 14.971 17.565 A 5.365 5.365 0 0 1 14.539 18.786 Q 13.95 19.964 12.912 20.786 Q 11.873 21.607 10.416 22.026 A 10.798 10.798 0 0 1 8.295 22.403 A 13 13 0 0 1 7.254 22.444 A 14.684 14.684 0 0 1 4.844 22.254 A 11.795 11.795 0 0 1 3.131 21.84 A 11.844 11.844 0 0 1 1.467 21.163 A 8.814 8.814 0 0 1 0 20.243 Z" id="0" vector-effect="non-scaling-stroke"/><path d="M 32.271 13.361 L 32.271 0.372 L 35.123 0.372 L 35.123 13.702 A 12.529 12.529 0 0 1 34.971 15.701 A 9.672 9.672 0 0 1 34.549 17.376 Q 33.976 19.003 32.907 20.135 Q 31.837 21.266 30.349 21.855 A 8.386 8.386 0 0 1 28.155 22.385 A 10.432 10.432 0 0 1 27.032 22.444 A 10.408 10.408 0 0 1 24.628 22.182 A 6.949 6.949 0 0 1 21.126 20.228 A 7.138 7.138 0 0 1 19.473 17.33 Q 19.135 16.227 19.04 14.9 A 15.03 15.03 0 0 1 19.003 13.826 L 19.003 0.372 L 21.948 0.372 L 21.948 13.361 Q 21.948 15.416 22.489 16.85 A 5.43 5.43 0 0 0 23.203 18.182 A 4.041 4.041 0 0 0 25.689 19.737 A 6.367 6.367 0 0 0 27.032 19.871 A 6.63 6.63 0 0 0 28.583 19.701 A 4.171 4.171 0 0 0 30.969 18.213 A 5.388 5.388 0 0 0 31.836 16.54 Q 32.271 15.207 32.271 13.361 Z" id="1" vector-effect="non-scaling-stroke"/><path d="M 44.578 15.221 L 44.578 0.372 L 47.523 0.372 L 47.523 14.911 Q 47.523 16.895 47.089 18.321 Q 46.655 19.747 45.849 20.662 Q 45.043 21.576 43.927 22.01 A 6.383 6.383 0 0 1 42.275 22.402 A 7.899 7.899 0 0 1 41.447 22.444 A 7.267 7.267 0 0 1 38.943 22.015 A 6.944 6.944 0 0 1 38.765 21.948 A 7.077 7.077 0 0 1 37.55 21.334 A 5.637 5.637 0 0 1 36.673 20.646 L 38.099 18.383 A 5.226 5.226 0 0 0 39.361 19.349 A 6.024 6.024 0 0 0 39.587 19.468 A 4.065 4.065 0 0 0 40.788 19.859 A 3.702 3.702 0 0 0 41.354 19.902 A 3.387 3.387 0 0 0 42.422 19.741 A 2.769 2.769 0 0 0 43.71 18.848 A 2.985 2.985 0 0 0 44.186 17.993 Q 44.507 17.139 44.565 15.825 A 13.674 13.674 0 0 0 44.578 15.221 Z" id="2" vector-effect="non-scaling-stroke"/><path d="M 52.824 22.32 L 50.313 21.297 L 58.807 0.372 L 62.031 0.372 L 70.401 21.297 L 67.704 22.382 L 65.286 16.182 L 55.242 16.182 L 52.824 22.32 Z M 60.264 3.286 L 56.172 13.702 L 64.325 13.702 L 60.264 3.286 Z" id="3" vector-effect="non-scaling-stroke"/><path d="M 85.932 22.072 L 76.291 4.154 L 76.291 22.072 L 73.501 22.072 L 73.501 0.372 L 77.407 0.372 L 86.986 18.414 L 86.986 0.372 L 89.776 0.372 L 89.776 22.072 L 85.932 22.072 Z" id="4" vector-effect="non-scaling-stroke"/></g></svg>